<svg id="Layer_1" data-name="Layer 1" xmlns="http://www.w3.org/2000/svg" viewBox="0 0 502.26 341.95"><title>kostaria</title><path d="M274.54,387.5H134.06c-25.75,0-46.82-21.29-46.82-47.32v-142A124.83,124.83,0,0,1,101,164.78c1.7-2.85,3.49-5.57,5.36-8.19a122.79,122.79,0,0,0-23.63,26.94A118.29,118.29,0,0,0,68.1,216.47V356.41c0,25.65,22.39,46.64,49.76,46.64H267.14c7.67-.4,21.55-2.38,33.56-12.28,19.61-16.18,26.05-46.75,15.57-76.54.45,2.49,6.89,41.37-18.92,62.57A52.93,52.93,0,0,1,274.54,387.5Z" transform="translate(-5.4 -77.05)" style="fill:#9692af"/><path d="M345.28,201.63c0,5.19-11.78,9.46-26.08,9.46s-26.09-4.27-26.09-9.46V113.2c-1.61-6,11.35-11,26.09-10.94,13.29,0,25.34,4.1,26.08,9.46Z" transform="translate(-5.4 -77.05)" style="fill:#9692af"/><path d="M360.57,210.33,204,82.1c-6.79-5-16-6.18-23.82-4a26.72,26.72,0,0,0-13.15,7.37l-154.84,134c-9.09,7.87-9.11,20.42-.05,27.8s24,7,33.1-.88L186.86,123.86,327.33,239c9,7.4,24,7,33.1-.81S369.6,217.74,360.57,210.33Z" transform="translate(-5.4 -77.05)" style="fill:#9692af"/><text transform="translate(91.4 272.57)" style="font-size:76.55586242675781px;fill:#231f20;font-family:Simpsonfont, Simpsonfont">K<tspan x="50.84" y="0" style="font-size:127.59309387207031px">O</tspan><tspan x="141.49" y="0" style="letter-spacing:0.03710780889207351em">S</tspan><tspan x="192.36" y="0" style="fill:#9692af;letter-spacing:-0.1914069001119158em">T</tspan><tspan x="235.01" y="0" style="fill:#addbdf">a</tspan><tspan x="282.49" y="0" style="fill:#addbdf;letter-spacing:0.03418663727423754em">r</tspan><tspan x="325.1" y="0" style="fill:#addbdf">ia</tspan></text><path d="M103.84,252c0-17.09,15.27-30.94,34.1-30.94a35.19,35.19,0,0,1,27.77,13c-2.89-14.43-16.8-25.38-33.54-25.38-18.82,0-34.09,13.86-34.09,30.94a28.94,28.94,0,0,0,6.32,17.94A28.41,28.41,0,0,1,103.84,252Z" transform="translate(-5.4 -77.05)" style="fill:#231f20"/><path d="M285.42,252a31.6,31.6,0,0,0-57.19-18,31.55,31.55,0,0,1,62.52,5.59,30.63,30.63,0,0,1-5.85,18A30.35,30.35,0,0,0,285.42,252Z" transform="translate(-5.4 -77.05)" style="fill:#231f20"/></svg>